<?xml version="1.0" encoding="utf-8"?>
<!-- Generator: Adobe Illustrator 26.5.1, SVG Export Plug-In . SVG Version: 6.00 Build 0)  -->
<svg version="1.1" id="Layer_1" xmlns="http://www.w3.org/2000/svg" xmlns:xlink="http://www.w3.org/1999/xlink" x="0px" y="0px"
	 viewBox="0 0 800 500" style="enable-background:new 0 0 800 500;" xml:space="preserve">
<style type="text/css">
	.st0{fill:none;stroke:#E6E6E6;stroke-width:7;stroke-miterlimit:10;}
	.st1{fill:none;stroke:#E6E6E6;stroke-width:4;stroke-miterlimit:10;}
	.st2{fill:#662D91;}
	.st3{fill:none;}
	.st4{fill:#E6E6E6;}
	.st5{font-family:'Helvetica-Bold';}
	.st6{font-size:12px;}
</style>
<line class="st0" x1="266.8" y1="72.7" x2="266.8" y2="445.4"/>
<line class="st0" x1="394.4" y1="70.5" x2="394.4" y2="449.9"/>
<line class="st0" x1="157.8" y1="282.2" x2="670" y2="282.2"/>
<line class="st0" x1="518.6" y1="65.9" x2="518.6" y2="250"/>
<g>
	<polyline class="st0" points="518.6,250 561,317.8 606.7,445.4 	"/>
</g>
<g>
	<polyline class="st0" points="518.6,250 506.8,282.2 551.4,416.1 549.6,449.9 	"/>
</g>
<g>
	<line class="st1" x1="157.8" y1="246.1" x2="468.4" y2="246.1"/>
	<line class="st1" x1="160" y1="213.3" x2="468.4" y2="213.3"/>
	<g>
		<line class="st1" x1="518.6" y1="213.3" x2="651.9" y2="213.3"/>
		<line class="st1" x1="161.2" y1="318.4" x2="653" y2="318.4"/>
		<line class="st1" x1="161.2" y1="354.5" x2="653" y2="354.5"/>
		<line class="st1" x1="161.2" y1="386.7" x2="653" y2="386.7"/>
		<line class="st1" x1="162.3" y1="182.8" x2="651.9" y2="182.8"/>
		<line class="st1" x1="162.3" y1="152.3" x2="651.9" y2="152.3"/>
		<line class="st1" x1="162.3" y1="121.9" x2="651.9" y2="121.9"/>
		<line class="st1" x1="162.3" y1="91.4" x2="651.9" y2="91.4"/>
		<polyline class="st1" points="455.4,445.4 468.4,282.2 468.4,182.8 432.7,70.5 		"/>
		<line class="st1" x1="584.1" y1="282.2" x2="584.1" y2="91.4"/>
		<line class="st1" x1="612.9" y1="91.4" x2="612.9" y2="72.7"/>
		<line class="st1" x1="554.8" y1="91.4" x2="554.8" y2="72.7"/>
		<line class="st1" x1="518.6" y1="246.1" x2="651.9" y2="246.1"/>
		<polyline class="st1" points="229.1,445.4 266.8,416.1 653,416.1 		"/>
		<line class="st1" x1="161.2" y1="386.7" x2="243.4" y2="449.9"/>
		<line class="st1" x1="207.2" y1="422.1" x2="178" y2="444.2"/>
		<line class="st1" x1="181.7" y1="402.6" x2="161.2" y2="423.6"/>
	</g>
</g>
<circle class="st2" cx="388.2" cy="274" r="16"/>
<rect x="470.9" y="186.8" class="st3" width="41.9" height="61.2"/>
<text transform="matrix(1 0 0 1 470.9356 195.4174)"><tspan x="0" y="0" class="st4 st5 st6">Union </tspan><tspan x="0" y="14.4" class="st4 st5 st6">Square</tspan></text>
<polygon class="st2" points="388.2,299.9 402.7,280.4 373.6,280.4 "/>
</svg>
